<mxfile host="Electron" modified="2023-06-15T14:25:51.617Z" agent="Mozilla/5.0 (Windows NT 10.0; Win64; x64) AppleWebKit/537.36 (KHTML, like Gecko) draw.io/21.4.0 Chrome/112.0.5615.204 Electron/24.5.1 Safari/537.36" etag="sbNPSZDPUCSjw5Sh1mwA" version="21.4.0" type="device">
  <diagram name="Page-1" id="7UbdBPYj06zFRQypQjeq">
    <mxGraphModel dx="1419" dy="819" grid="1" gridSize="10" guides="1" tooltips="1" connect="1" arrows="1" fold="1" page="1" pageScale="1" pageWidth="827" pageHeight="1169" math="0" shadow="0">
      <root>
        <mxCell id="0" />
        <mxCell id="1" parent="0" />
        <mxCell id="pQ2Xcmpo9Xli9fcRxPAJ-2" value="" style="group;movable=1;resizable=1;rotatable=1;deletable=1;editable=1;locked=0;connectable=1;" parent="1" vertex="1" connectable="0">
          <mxGeometry x="210" y="520" width="105" height="200" as="geometry" />
        </mxCell>
        <mxCell id="pQ2Xcmpo9Xli9fcRxPAJ-3" value="" style="verticalLabelPosition=bottom;verticalAlign=top;html=1;shape=mxgraph.basic.cone2;dx=0.5;dy=0.74;rotation=90;fillColor=#f5f5f5;fontColor=#333333;strokeColor=#666666;movable=1;resizable=1;rotatable=1;deletable=1;editable=1;locked=0;connectable=1;" parent="pQ2Xcmpo9Xli9fcRxPAJ-2" vertex="1">
          <mxGeometry x="-5" y="10" width="90" height="80" as="geometry" />
        </mxCell>
        <mxCell id="pQ2Xcmpo9Xli9fcRxPAJ-4" value="" style="verticalLabelPosition=bottom;verticalAlign=top;html=1;shape=mxgraph.basic.partConcEllipse;startAngle=0.6184630642608102;endAngle=0.875;arcWidth=0.18;fillColor=#f5f5f5;fontColor=#333333;strokeColor=#666666;movable=1;resizable=1;rotatable=1;deletable=1;editable=1;locked=0;connectable=1;" parent="pQ2Xcmpo9Xli9fcRxPAJ-2" vertex="1">
          <mxGeometry x="5" width="100" height="100" as="geometry" />
        </mxCell>
        <mxCell id="pQ2Xcmpo9Xli9fcRxPAJ-5" value="" style="verticalLabelPosition=bottom;verticalAlign=top;html=1;shape=mxgraph.basic.partConcEllipse;startAngle=0.616948397779773;endAngle=0.8770145119418312;arcWidth=0.18;fillColor=#f5f5f5;fontColor=#333333;strokeColor=#666666;movable=1;resizable=1;rotatable=1;deletable=1;editable=1;locked=0;connectable=1;" parent="pQ2Xcmpo9Xli9fcRxPAJ-2" vertex="1">
          <mxGeometry x="20" y="15" width="70" height="70" as="geometry" />
        </mxCell>
        <mxCell id="pQ2Xcmpo9Xli9fcRxPAJ-6" value="" style="verticalLabelPosition=bottom;verticalAlign=top;html=1;shape=mxgraph.basic.partConcEllipse;startAngle=0.6149403202663407;endAngle=0.8812791719753924;arcWidth=0.18;fillColor=#f5f5f5;fontColor=#333333;strokeColor=#666666;movable=1;resizable=1;rotatable=1;deletable=1;editable=1;locked=0;connectable=1;" parent="pQ2Xcmpo9Xli9fcRxPAJ-2" vertex="1">
          <mxGeometry x="30" y="25" width="50" height="50" as="geometry" />
        </mxCell>
        <mxCell id="pQ2Xcmpo9Xli9fcRxPAJ-7" value="" style="verticalLabelPosition=bottom;verticalAlign=top;html=1;shape=mxgraph.basic.cone2;dx=0.5;dy=0.67;rotation=90;fillColor=#f5f5f5;fontColor=#333333;strokeColor=#666666;movable=1;resizable=1;rotatable=1;deletable=1;editable=1;locked=0;connectable=1;" parent="pQ2Xcmpo9Xli9fcRxPAJ-2" vertex="1">
          <mxGeometry x="40.13" y="34.62" width="25.75" height="30" as="geometry" />
        </mxCell>
        <mxCell id="pQ2Xcmpo9Xli9fcRxPAJ-8" value="" style="group;movable=1;resizable=1;rotatable=1;deletable=1;editable=1;locked=0;connectable=1;" parent="pQ2Xcmpo9Xli9fcRxPAJ-2" vertex="1" connectable="0">
          <mxGeometry y="100" width="105" height="100" as="geometry" />
        </mxCell>
        <mxCell id="pQ2Xcmpo9Xli9fcRxPAJ-9" value="" style="verticalLabelPosition=bottom;verticalAlign=top;html=1;shape=mxgraph.basic.cone2;dx=0.5;dy=0.74;rotation=90;fillColor=#f5f5f5;fontColor=#333333;strokeColor=#666666;movable=1;resizable=1;rotatable=1;deletable=1;editable=1;locked=0;connectable=1;" parent="pQ2Xcmpo9Xli9fcRxPAJ-8" vertex="1">
          <mxGeometry x="-5" y="10" width="90" height="80" as="geometry" />
        </mxCell>
        <mxCell id="pQ2Xcmpo9Xli9fcRxPAJ-10" value="" style="verticalLabelPosition=bottom;verticalAlign=top;html=1;shape=mxgraph.basic.partConcEllipse;startAngle=0.6184630642608102;endAngle=0.875;arcWidth=0.18;fillColor=#f5f5f5;fontColor=#333333;strokeColor=#666666;movable=1;resizable=1;rotatable=1;deletable=1;editable=1;locked=0;connectable=1;" parent="pQ2Xcmpo9Xli9fcRxPAJ-8" vertex="1">
          <mxGeometry x="5" width="100" height="100" as="geometry" />
        </mxCell>
        <mxCell id="pQ2Xcmpo9Xli9fcRxPAJ-11" value="" style="verticalLabelPosition=bottom;verticalAlign=top;html=1;shape=mxgraph.basic.partConcEllipse;startAngle=0.616948397779773;endAngle=0.8770145119418312;arcWidth=0.18;fillColor=#f5f5f5;fontColor=#333333;strokeColor=#666666;movable=1;resizable=1;rotatable=1;deletable=1;editable=1;locked=0;connectable=1;" parent="pQ2Xcmpo9Xli9fcRxPAJ-8" vertex="1">
          <mxGeometry x="20" y="15" width="70" height="70" as="geometry" />
        </mxCell>
        <mxCell id="pQ2Xcmpo9Xli9fcRxPAJ-12" value="" style="verticalLabelPosition=bottom;verticalAlign=top;html=1;shape=mxgraph.basic.partConcEllipse;startAngle=0.6149403202663407;endAngle=0.8812791719753924;arcWidth=0.18;fillColor=#f5f5f5;fontColor=#333333;strokeColor=#666666;movable=1;resizable=1;rotatable=1;deletable=1;editable=1;locked=0;connectable=1;" parent="pQ2Xcmpo9Xli9fcRxPAJ-8" vertex="1">
          <mxGeometry x="30" y="25" width="50" height="50" as="geometry" />
        </mxCell>
        <mxCell id="pQ2Xcmpo9Xli9fcRxPAJ-13" value="" style="verticalLabelPosition=bottom;verticalAlign=top;html=1;shape=mxgraph.basic.cone2;dx=0.5;dy=0.67;rotation=90;fillColor=#f5f5f5;fontColor=#333333;strokeColor=#666666;movable=1;resizable=1;rotatable=1;deletable=1;editable=1;locked=0;connectable=1;" parent="pQ2Xcmpo9Xli9fcRxPAJ-8" vertex="1">
          <mxGeometry x="40.13" y="34.62" width="25.75" height="30" as="geometry" />
        </mxCell>
        <mxCell id="pQ2Xcmpo9Xli9fcRxPAJ-14" value="" style="group;movable=1;resizable=1;rotatable=1;deletable=1;editable=1;locked=0;connectable=1;" parent="1" vertex="1" connectable="0">
          <mxGeometry x="210" y="720" width="105" height="200" as="geometry" />
        </mxCell>
        <mxCell id="pQ2Xcmpo9Xli9fcRxPAJ-15" value="" style="verticalLabelPosition=bottom;verticalAlign=top;html=1;shape=mxgraph.basic.cone2;dx=0.5;dy=0.74;rotation=90;fillColor=#f5f5f5;fontColor=#333333;strokeColor=#666666;movable=1;resizable=1;rotatable=1;deletable=1;editable=1;locked=0;connectable=1;" parent="pQ2Xcmpo9Xli9fcRxPAJ-14" vertex="1">
          <mxGeometry x="-5" y="10" width="90" height="80" as="geometry" />
        </mxCell>
        <mxCell id="pQ2Xcmpo9Xli9fcRxPAJ-16" value="" style="verticalLabelPosition=bottom;verticalAlign=top;html=1;shape=mxgraph.basic.partConcEllipse;startAngle=0.6184630642608102;endAngle=0.875;arcWidth=0.18;fillColor=#f5f5f5;fontColor=#333333;strokeColor=#666666;movable=1;resizable=1;rotatable=1;deletable=1;editable=1;locked=0;connectable=1;" parent="pQ2Xcmpo9Xli9fcRxPAJ-14" vertex="1">
          <mxGeometry x="5" width="100" height="100" as="geometry" />
        </mxCell>
        <mxCell id="pQ2Xcmpo9Xli9fcRxPAJ-17" value="" style="verticalLabelPosition=bottom;verticalAlign=top;html=1;shape=mxgraph.basic.partConcEllipse;startAngle=0.616948397779773;endAngle=0.8770145119418312;arcWidth=0.18;fillColor=#f5f5f5;fontColor=#333333;strokeColor=#666666;movable=1;resizable=1;rotatable=1;deletable=1;editable=1;locked=0;connectable=1;" parent="pQ2Xcmpo9Xli9fcRxPAJ-14" vertex="1">
          <mxGeometry x="20" y="15" width="70" height="70" as="geometry" />
        </mxCell>
        <mxCell id="pQ2Xcmpo9Xli9fcRxPAJ-18" value="" style="verticalLabelPosition=bottom;verticalAlign=top;html=1;shape=mxgraph.basic.partConcEllipse;startAngle=0.6149403202663407;endAngle=0.8812791719753924;arcWidth=0.18;fillColor=#f5f5f5;fontColor=#333333;strokeColor=#666666;movable=1;resizable=1;rotatable=1;deletable=1;editable=1;locked=0;connectable=1;" parent="pQ2Xcmpo9Xli9fcRxPAJ-14" vertex="1">
          <mxGeometry x="30" y="25" width="50" height="50" as="geometry" />
        </mxCell>
        <mxCell id="pQ2Xcmpo9Xli9fcRxPAJ-19" value="" style="verticalLabelPosition=bottom;verticalAlign=top;html=1;shape=mxgraph.basic.cone2;dx=0.5;dy=0.67;rotation=90;fillColor=#f5f5f5;fontColor=#333333;strokeColor=#666666;movable=1;resizable=1;rotatable=1;deletable=1;editable=1;locked=0;connectable=1;" parent="pQ2Xcmpo9Xli9fcRxPAJ-14" vertex="1">
          <mxGeometry x="40.13" y="34.62" width="25.75" height="30" as="geometry" />
        </mxCell>
        <mxCell id="pQ2Xcmpo9Xli9fcRxPAJ-20" value="" style="group;movable=1;resizable=1;rotatable=1;deletable=1;editable=1;locked=0;connectable=1;" parent="pQ2Xcmpo9Xli9fcRxPAJ-14" vertex="1" connectable="0">
          <mxGeometry y="100" width="105" height="100" as="geometry" />
        </mxCell>
        <mxCell id="pQ2Xcmpo9Xli9fcRxPAJ-21" value="" style="verticalLabelPosition=bottom;verticalAlign=top;html=1;shape=mxgraph.basic.cone2;dx=0.5;dy=0.74;rotation=90;fillColor=#f5f5f5;fontColor=#333333;strokeColor=#666666;movable=1;resizable=1;rotatable=1;deletable=1;editable=1;locked=0;connectable=1;" parent="pQ2Xcmpo9Xli9fcRxPAJ-20" vertex="1">
          <mxGeometry x="-5" y="10" width="90" height="80" as="geometry" />
        </mxCell>
        <mxCell id="pQ2Xcmpo9Xli9fcRxPAJ-22" value="" style="verticalLabelPosition=bottom;verticalAlign=top;html=1;shape=mxgraph.basic.partConcEllipse;startAngle=0.6184630642608102;endAngle=0.875;arcWidth=0.18;fillColor=#f5f5f5;fontColor=#333333;strokeColor=#666666;movable=1;resizable=1;rotatable=1;deletable=1;editable=1;locked=0;connectable=1;" parent="pQ2Xcmpo9Xli9fcRxPAJ-20" vertex="1">
          <mxGeometry x="5" width="100" height="100" as="geometry" />
        </mxCell>
        <mxCell id="pQ2Xcmpo9Xli9fcRxPAJ-23" value="" style="verticalLabelPosition=bottom;verticalAlign=top;html=1;shape=mxgraph.basic.partConcEllipse;startAngle=0.616948397779773;endAngle=0.8770145119418312;arcWidth=0.18;fillColor=#f5f5f5;fontColor=#333333;strokeColor=#666666;movable=1;resizable=1;rotatable=1;deletable=1;editable=1;locked=0;connectable=1;" parent="pQ2Xcmpo9Xli9fcRxPAJ-20" vertex="1">
          <mxGeometry x="20" y="15" width="70" height="70" as="geometry" />
        </mxCell>
        <mxCell id="pQ2Xcmpo9Xli9fcRxPAJ-24" value="" style="verticalLabelPosition=bottom;verticalAlign=top;html=1;shape=mxgraph.basic.partConcEllipse;startAngle=0.6149403202663407;endAngle=0.8812791719753924;arcWidth=0.18;fillColor=#f5f5f5;fontColor=#333333;strokeColor=#666666;movable=1;resizable=1;rotatable=1;deletable=1;editable=1;locked=0;connectable=1;" parent="pQ2Xcmpo9Xli9fcRxPAJ-20" vertex="1">
          <mxGeometry x="30" y="25" width="50" height="50" as="geometry" />
        </mxCell>
        <mxCell id="pQ2Xcmpo9Xli9fcRxPAJ-25" value="" style="verticalLabelPosition=bottom;verticalAlign=top;html=1;shape=mxgraph.basic.cone2;dx=0.5;dy=0.67;rotation=90;fillColor=#f5f5f5;fontColor=#333333;strokeColor=#666666;movable=1;resizable=1;rotatable=1;deletable=1;editable=1;locked=0;connectable=1;" parent="pQ2Xcmpo9Xli9fcRxPAJ-20" vertex="1">
          <mxGeometry x="40.13" y="34.62" width="25.75" height="30" as="geometry" />
        </mxCell>
        <mxCell id="pQ2Xcmpo9Xli9fcRxPAJ-38" value="" style="group;movable=1;resizable=1;rotatable=1;deletable=1;editable=1;locked=0;connectable=1;rotation=-180;" parent="1" vertex="1" connectable="0">
          <mxGeometry x="827" y="520" width="105" height="200" as="geometry" />
        </mxCell>
        <mxCell id="pQ2Xcmpo9Xli9fcRxPAJ-39" value="" style="verticalLabelPosition=bottom;verticalAlign=top;html=1;shape=mxgraph.basic.cone2;dx=0.5;dy=0.74;rotation=-90;fillColor=#f5f5f5;fontColor=#333333;strokeColor=#666666;movable=1;resizable=1;rotatable=1;deletable=1;editable=1;locked=0;connectable=1;" parent="pQ2Xcmpo9Xli9fcRxPAJ-38" vertex="1">
          <mxGeometry x="20" y="110" width="90" height="80" as="geometry" />
        </mxCell>
        <mxCell id="pQ2Xcmpo9Xli9fcRxPAJ-40" value="" style="verticalLabelPosition=bottom;verticalAlign=top;html=1;shape=mxgraph.basic.partConcEllipse;startAngle=0.6184630642608102;endAngle=0.875;arcWidth=0.18;fillColor=#f5f5f5;fontColor=#333333;strokeColor=#666666;movable=1;resizable=1;rotatable=1;deletable=1;editable=1;locked=0;connectable=1;rotation=-180;" parent="pQ2Xcmpo9Xli9fcRxPAJ-38" vertex="1">
          <mxGeometry y="100" width="100" height="100" as="geometry" />
        </mxCell>
        <mxCell id="pQ2Xcmpo9Xli9fcRxPAJ-41" value="" style="verticalLabelPosition=bottom;verticalAlign=top;html=1;shape=mxgraph.basic.partConcEllipse;startAngle=0.616948397779773;endAngle=0.8770145119418312;arcWidth=0.18;fillColor=#f5f5f5;fontColor=#333333;strokeColor=#666666;movable=1;resizable=1;rotatable=1;deletable=1;editable=1;locked=0;connectable=1;rotation=-180;" parent="pQ2Xcmpo9Xli9fcRxPAJ-38" vertex="1">
          <mxGeometry x="15" y="115" width="70" height="70" as="geometry" />
        </mxCell>
        <mxCell id="pQ2Xcmpo9Xli9fcRxPAJ-42" value="" style="verticalLabelPosition=bottom;verticalAlign=top;html=1;shape=mxgraph.basic.partConcEllipse;startAngle=0.6149403202663407;endAngle=0.8812791719753924;arcWidth=0.18;fillColor=#f5f5f5;fontColor=#333333;strokeColor=#666666;movable=1;resizable=1;rotatable=1;deletable=1;editable=1;locked=0;connectable=1;rotation=-180;" parent="pQ2Xcmpo9Xli9fcRxPAJ-38" vertex="1">
          <mxGeometry x="25" y="125" width="50" height="50" as="geometry" />
        </mxCell>
        <mxCell id="pQ2Xcmpo9Xli9fcRxPAJ-43" value="" style="verticalLabelPosition=bottom;verticalAlign=top;html=1;shape=mxgraph.basic.cone2;dx=0.5;dy=0.67;rotation=-90;fillColor=#f5f5f5;fontColor=#333333;strokeColor=#666666;movable=1;resizable=1;rotatable=1;deletable=1;editable=1;locked=0;connectable=1;" parent="pQ2Xcmpo9Xli9fcRxPAJ-38" vertex="1">
          <mxGeometry x="39" y="135" width="25.75" height="30" as="geometry" />
        </mxCell>
        <mxCell id="pQ2Xcmpo9Xli9fcRxPAJ-44" value="" style="group;movable=1;resizable=1;rotatable=1;deletable=1;editable=1;locked=0;connectable=1;rotation=-180;" parent="pQ2Xcmpo9Xli9fcRxPAJ-38" vertex="1" connectable="0">
          <mxGeometry width="105" height="100" as="geometry" />
        </mxCell>
        <mxCell id="pQ2Xcmpo9Xli9fcRxPAJ-45" value="" style="verticalLabelPosition=bottom;verticalAlign=top;html=1;shape=mxgraph.basic.cone2;dx=0.5;dy=0.74;rotation=-90;fillColor=#f5f5f5;fontColor=#333333;strokeColor=#666666;movable=1;resizable=1;rotatable=1;deletable=1;editable=1;locked=0;connectable=1;" parent="pQ2Xcmpo9Xli9fcRxPAJ-44" vertex="1">
          <mxGeometry x="20" y="10" width="90" height="80" as="geometry" />
        </mxCell>
        <mxCell id="pQ2Xcmpo9Xli9fcRxPAJ-46" value="" style="verticalLabelPosition=bottom;verticalAlign=top;html=1;shape=mxgraph.basic.partConcEllipse;startAngle=0.6184630642608102;endAngle=0.875;arcWidth=0.18;fillColor=#f5f5f5;fontColor=#333333;strokeColor=#666666;movable=1;resizable=1;rotatable=1;deletable=1;editable=1;locked=0;connectable=1;rotation=-180;" parent="pQ2Xcmpo9Xli9fcRxPAJ-44" vertex="1">
          <mxGeometry width="100" height="100" as="geometry" />
        </mxCell>
        <mxCell id="pQ2Xcmpo9Xli9fcRxPAJ-47" value="" style="verticalLabelPosition=bottom;verticalAlign=top;html=1;shape=mxgraph.basic.partConcEllipse;startAngle=0.616948397779773;endAngle=0.8770145119418312;arcWidth=0.18;fillColor=#f5f5f5;fontColor=#333333;strokeColor=#666666;movable=1;resizable=1;rotatable=1;deletable=1;editable=1;locked=0;connectable=1;rotation=-180;" parent="pQ2Xcmpo9Xli9fcRxPAJ-44" vertex="1">
          <mxGeometry x="15" y="15" width="70" height="70" as="geometry" />
        </mxCell>
        <mxCell id="pQ2Xcmpo9Xli9fcRxPAJ-48" value="" style="verticalLabelPosition=bottom;verticalAlign=top;html=1;shape=mxgraph.basic.partConcEllipse;startAngle=0.6149403202663407;endAngle=0.8812791719753924;arcWidth=0.18;fillColor=#f5f5f5;fontColor=#333333;strokeColor=#666666;movable=1;resizable=1;rotatable=1;deletable=1;editable=1;locked=0;connectable=1;rotation=-180;" parent="pQ2Xcmpo9Xli9fcRxPAJ-44" vertex="1">
          <mxGeometry x="25" y="25" width="50" height="50" as="geometry" />
        </mxCell>
        <mxCell id="pQ2Xcmpo9Xli9fcRxPAJ-49" value="" style="verticalLabelPosition=bottom;verticalAlign=top;html=1;shape=mxgraph.basic.cone2;dx=0.5;dy=0.67;rotation=-90;fillColor=#f5f5f5;fontColor=#333333;strokeColor=#666666;movable=1;resizable=1;rotatable=1;deletable=1;editable=1;locked=0;connectable=1;" parent="pQ2Xcmpo9Xli9fcRxPAJ-44" vertex="1">
          <mxGeometry x="39" y="35" width="25.75" height="30" as="geometry" />
        </mxCell>
        <mxCell id="pQ2Xcmpo9Xli9fcRxPAJ-50" value="" style="group;movable=1;resizable=1;rotatable=1;deletable=1;editable=1;locked=0;connectable=1;rotation=-180;" parent="1" vertex="1" connectable="0">
          <mxGeometry x="827" y="720" width="105" height="200" as="geometry" />
        </mxCell>
        <mxCell id="pQ2Xcmpo9Xli9fcRxPAJ-51" value="" style="verticalLabelPosition=bottom;verticalAlign=top;html=1;shape=mxgraph.basic.cone2;dx=0.5;dy=0.74;rotation=-90;fillColor=#f5f5f5;fontColor=#333333;strokeColor=#666666;movable=1;resizable=1;rotatable=1;deletable=1;editable=1;locked=0;connectable=1;" parent="pQ2Xcmpo9Xli9fcRxPAJ-50" vertex="1">
          <mxGeometry x="20" y="110" width="90" height="80" as="geometry" />
        </mxCell>
        <mxCell id="pQ2Xcmpo9Xli9fcRxPAJ-52" value="" style="verticalLabelPosition=bottom;verticalAlign=top;html=1;shape=mxgraph.basic.partConcEllipse;startAngle=0.6184630642608102;endAngle=0.875;arcWidth=0.18;fillColor=#f5f5f5;fontColor=#333333;strokeColor=#666666;movable=1;resizable=1;rotatable=1;deletable=1;editable=1;locked=0;connectable=1;rotation=-180;" parent="pQ2Xcmpo9Xli9fcRxPAJ-50" vertex="1">
          <mxGeometry y="100" width="100" height="100" as="geometry" />
        </mxCell>
        <mxCell id="pQ2Xcmpo9Xli9fcRxPAJ-53" value="" style="verticalLabelPosition=bottom;verticalAlign=top;html=1;shape=mxgraph.basic.partConcEllipse;startAngle=0.616948397779773;endAngle=0.8770145119418312;arcWidth=0.18;fillColor=#f5f5f5;fontColor=#333333;strokeColor=#666666;movable=1;resizable=1;rotatable=1;deletable=1;editable=1;locked=0;connectable=1;rotation=-180;" parent="pQ2Xcmpo9Xli9fcRxPAJ-50" vertex="1">
          <mxGeometry x="15" y="115" width="70" height="70" as="geometry" />
        </mxCell>
        <mxCell id="pQ2Xcmpo9Xli9fcRxPAJ-54" value="" style="verticalLabelPosition=bottom;verticalAlign=top;html=1;shape=mxgraph.basic.partConcEllipse;startAngle=0.6149403202663407;endAngle=0.8812791719753924;arcWidth=0.18;fillColor=#f5f5f5;fontColor=#333333;strokeColor=#666666;movable=1;resizable=1;rotatable=1;deletable=1;editable=1;locked=0;connectable=1;rotation=-180;" parent="pQ2Xcmpo9Xli9fcRxPAJ-50" vertex="1">
          <mxGeometry x="25" y="125" width="50" height="50" as="geometry" />
        </mxCell>
        <mxCell id="pQ2Xcmpo9Xli9fcRxPAJ-55" value="" style="verticalLabelPosition=bottom;verticalAlign=top;html=1;shape=mxgraph.basic.cone2;dx=0.5;dy=0.67;rotation=-90;fillColor=#f5f5f5;fontColor=#333333;strokeColor=#666666;movable=1;resizable=1;rotatable=1;deletable=1;editable=1;locked=0;connectable=1;" parent="pQ2Xcmpo9Xli9fcRxPAJ-50" vertex="1">
          <mxGeometry x="39" y="135" width="25.75" height="30" as="geometry" />
        </mxCell>
        <mxCell id="pQ2Xcmpo9Xli9fcRxPAJ-56" value="" style="group;movable=1;resizable=1;rotatable=1;deletable=1;editable=1;locked=0;connectable=1;rotation=-180;" parent="pQ2Xcmpo9Xli9fcRxPAJ-50" vertex="1" connectable="0">
          <mxGeometry width="105" height="100" as="geometry" />
        </mxCell>
        <mxCell id="pQ2Xcmpo9Xli9fcRxPAJ-57" value="" style="verticalLabelPosition=bottom;verticalAlign=top;html=1;shape=mxgraph.basic.cone2;dx=0.5;dy=0.74;rotation=-90;fillColor=#f5f5f5;fontColor=#333333;strokeColor=#666666;movable=1;resizable=1;rotatable=1;deletable=1;editable=1;locked=0;connectable=1;" parent="pQ2Xcmpo9Xli9fcRxPAJ-56" vertex="1">
          <mxGeometry x="20" y="10" width="90" height="80" as="geometry" />
        </mxCell>
        <mxCell id="pQ2Xcmpo9Xli9fcRxPAJ-58" value="" style="verticalLabelPosition=bottom;verticalAlign=top;html=1;shape=mxgraph.basic.partConcEllipse;startAngle=0.6184630642608102;endAngle=0.875;arcWidth=0.18;fillColor=#f5f5f5;fontColor=#333333;strokeColor=#666666;movable=1;resizable=1;rotatable=1;deletable=1;editable=1;locked=0;connectable=1;rotation=-180;" parent="pQ2Xcmpo9Xli9fcRxPAJ-56" vertex="1">
          <mxGeometry width="100" height="100" as="geometry" />
        </mxCell>
        <mxCell id="pQ2Xcmpo9Xli9fcRxPAJ-59" value="" style="verticalLabelPosition=bottom;verticalAlign=top;html=1;shape=mxgraph.basic.partConcEllipse;startAngle=0.616948397779773;endAngle=0.8770145119418312;arcWidth=0.18;fillColor=#f5f5f5;fontColor=#333333;strokeColor=#666666;movable=1;resizable=1;rotatable=1;deletable=1;editable=1;locked=0;connectable=1;rotation=-180;" parent="pQ2Xcmpo9Xli9fcRxPAJ-56" vertex="1">
          <mxGeometry x="15" y="15" width="70" height="70" as="geometry" />
        </mxCell>
        <mxCell id="pQ2Xcmpo9Xli9fcRxPAJ-60" value="" style="verticalLabelPosition=bottom;verticalAlign=top;html=1;shape=mxgraph.basic.partConcEllipse;startAngle=0.6149403202663407;endAngle=0.8812791719753924;arcWidth=0.18;fillColor=#f5f5f5;fontColor=#333333;strokeColor=#666666;movable=1;resizable=1;rotatable=1;deletable=1;editable=1;locked=0;connectable=1;rotation=-180;" parent="pQ2Xcmpo9Xli9fcRxPAJ-56" vertex="1">
          <mxGeometry x="25" y="25" width="50" height="50" as="geometry" />
        </mxCell>
        <mxCell id="pQ2Xcmpo9Xli9fcRxPAJ-61" value="" style="verticalLabelPosition=bottom;verticalAlign=top;html=1;shape=mxgraph.basic.cone2;dx=0.5;dy=0.67;rotation=-90;fillColor=#f5f5f5;fontColor=#333333;strokeColor=#666666;movable=1;resizable=1;rotatable=1;deletable=1;editable=1;locked=0;connectable=1;" parent="pQ2Xcmpo9Xli9fcRxPAJ-56" vertex="1">
          <mxGeometry x="39" y="35" width="25.75" height="30" as="geometry" />
        </mxCell>
        <mxCell id="OwuYxfIfj9mXfRf48xYH-14" style="edgeStyle=none;shape=connector;rounded=0;orthogonalLoop=1;jettySize=auto;html=1;exitX=1;exitY=0.75;exitDx=0;exitDy=0;entryX=1;entryY=0.25;entryDx=0;entryDy=0;labelBackgroundColor=default;strokeColor=#7EA6E0;strokeWidth=3;fontFamily=Helvetica;fontSize=11;fontColor=default;endArrow=none;endFill=0;" parent="1" source="pQ2Xcmpo9Xli9fcRxPAJ-62" target="OwuYxfIfj9mXfRf48xYH-2" edge="1">
          <mxGeometry relative="1" as="geometry" />
        </mxCell>
        <mxCell id="pQ2Xcmpo9Xli9fcRxPAJ-62" value="" style="rounded=0;whiteSpace=wrap;html=1;fillColor=#7EA6E0;strokeColor=#7EA6E0;movable=1;resizable=1;rotatable=1;deletable=1;editable=1;locked=0;connectable=1;rotation=60;" parent="1" vertex="1">
          <mxGeometry x="521" y="634" width="60" height="28.5" as="geometry" />
        </mxCell>
        <mxCell id="OwuYxfIfj9mXfRf48xYH-12" style="edgeStyle=none;shape=connector;rounded=0;orthogonalLoop=1;jettySize=auto;html=1;exitX=1;exitY=0.25;exitDx=0;exitDy=0;entryX=0;entryY=0.25;entryDx=0;entryDy=0;labelBackgroundColor=default;strokeColor=#7EA6E0;strokeWidth=3;fontFamily=Helvetica;fontSize=11;fontColor=default;endArrow=none;endFill=0;" parent="1" source="OwuYxfIfj9mXfRf48xYH-1" target="OwuYxfIfj9mXfRf48xYH-4" edge="1">
          <mxGeometry relative="1" as="geometry" />
        </mxCell>
        <mxCell id="OwuYxfIfj9mXfRf48xYH-70" style="edgeStyle=orthogonalEdgeStyle;shape=connector;rounded=0;orthogonalLoop=1;jettySize=auto;html=1;exitX=0;exitY=0.75;exitDx=0;exitDy=0;entryX=0;entryY=0;entryDx=45;entryDy=0;entryPerimeter=0;labelBackgroundColor=default;strokeColor=#7EA6E0;strokeWidth=3;fontFamily=Helvetica;fontSize=11;fontColor=default;endArrow=none;endFill=0;" parent="1" source="OwuYxfIfj9mXfRf48xYH-1" target="pQ2Xcmpo9Xli9fcRxPAJ-15" edge="1">
          <mxGeometry relative="1" as="geometry">
            <Array as="points">
              <mxPoint x="320" y="697" />
              <mxPoint x="320" y="770" />
            </Array>
          </mxGeometry>
        </mxCell>
        <mxCell id="OwuYxfIfj9mXfRf48xYH-1" value="" style="rounded=0;whiteSpace=wrap;html=1;fillColor=#7EA6E0;strokeColor=#7EA6E0;movable=1;resizable=1;rotatable=1;deletable=1;editable=1;locked=0;connectable=1;rotation=60;" parent="1" vertex="1">
          <mxGeometry x="361" y="727" width="60" height="28.5" as="geometry" />
        </mxCell>
        <mxCell id="OwuYxfIfj9mXfRf48xYH-13" style="edgeStyle=none;shape=connector;rounded=0;orthogonalLoop=1;jettySize=auto;html=1;exitX=0;exitY=0.25;exitDx=0;exitDy=0;entryX=1;entryY=0.25;entryDx=0;entryDy=0;labelBackgroundColor=default;strokeColor=#7EA6E0;strokeWidth=3;fontFamily=Helvetica;fontSize=11;fontColor=default;endArrow=none;endFill=0;" parent="1" source="OwuYxfIfj9mXfRf48xYH-2" target="OwuYxfIfj9mXfRf48xYH-4" edge="1">
          <mxGeometry relative="1" as="geometry" />
        </mxCell>
        <mxCell id="OwuYxfIfj9mXfRf48xYH-2" value="" style="rounded=0;whiteSpace=wrap;html=1;fillColor=#7EA6E0;strokeColor=#7EA6E0;movable=1;resizable=1;rotatable=1;deletable=1;editable=1;locked=0;connectable=1;rotation=-60;" parent="1" vertex="1">
          <mxGeometry x="521" y="727" width="60" height="28.5" as="geometry" />
        </mxCell>
        <mxCell id="OwuYxfIfj9mXfRf48xYH-8" style="rounded=0;orthogonalLoop=1;jettySize=auto;html=1;exitX=0;exitY=0.75;exitDx=0;exitDy=0;entryX=1;entryY=0.75;entryDx=0;entryDy=0;strokeColor=#7EA6E0;strokeWidth=3;endArrow=none;endFill=0;" parent="1" source="OwuYxfIfj9mXfRf48xYH-3" target="OwuYxfIfj9mXfRf48xYH-7" edge="1">
          <mxGeometry relative="1" as="geometry" />
        </mxCell>
        <mxCell id="OwuYxfIfj9mXfRf48xYH-10" style="edgeStyle=none;shape=connector;rounded=0;orthogonalLoop=1;jettySize=auto;html=1;exitX=1;exitY=0.75;exitDx=0;exitDy=0;entryX=0;entryY=0.75;entryDx=0;entryDy=0;labelBackgroundColor=default;strokeColor=#7EA6E0;strokeWidth=3;fontFamily=Helvetica;fontSize=11;fontColor=default;endArrow=none;endFill=0;" parent="1" source="OwuYxfIfj9mXfRf48xYH-3" target="pQ2Xcmpo9Xli9fcRxPAJ-62" edge="1">
          <mxGeometry relative="1" as="geometry" />
        </mxCell>
        <mxCell id="OwuYxfIfj9mXfRf48xYH-3" value="" style="rounded=0;whiteSpace=wrap;html=1;fillColor=#7EA6E0;strokeColor=#7EA6E0;movable=1;resizable=1;rotatable=1;deletable=1;editable=1;locked=0;connectable=1;rotation=0;" parent="1" vertex="1">
          <mxGeometry x="441" y="584" width="60" height="28.5" as="geometry" />
        </mxCell>
        <mxCell id="OwuYxfIfj9mXfRf48xYH-4" value="" style="rounded=0;whiteSpace=wrap;html=1;fillColor=#7EA6E0;strokeColor=#7EA6E0;movable=1;resizable=1;rotatable=1;deletable=1;editable=1;locked=0;connectable=1;rotation=0;" parent="1" vertex="1">
          <mxGeometry x="441" y="777" width="60" height="28.5" as="geometry" />
        </mxCell>
        <mxCell id="OwuYxfIfj9mXfRf48xYH-11" style="edgeStyle=none;shape=connector;rounded=0;orthogonalLoop=1;jettySize=auto;html=1;exitX=0;exitY=0.75;exitDx=0;exitDy=0;entryX=0;entryY=0.25;entryDx=0;entryDy=0;labelBackgroundColor=default;strokeColor=#7EA6E0;strokeWidth=3;fontFamily=Helvetica;fontSize=11;fontColor=default;endArrow=none;endFill=0;" parent="1" source="OwuYxfIfj9mXfRf48xYH-7" target="OwuYxfIfj9mXfRf48xYH-1" edge="1">
          <mxGeometry relative="1" as="geometry" />
        </mxCell>
        <mxCell id="OwuYxfIfj9mXfRf48xYH-69" style="edgeStyle=orthogonalEdgeStyle;shape=connector;rounded=0;orthogonalLoop=1;jettySize=auto;html=1;exitX=1;exitY=0.25;exitDx=0;exitDy=0;entryX=0;entryY=0;entryDx=45;entryDy=0;entryPerimeter=0;labelBackgroundColor=default;strokeColor=#7EA6E0;strokeWidth=3;fontFamily=Helvetica;fontSize=11;fontColor=default;endArrow=none;endFill=0;" parent="1" source="OwuYxfIfj9mXfRf48xYH-7" target="pQ2Xcmpo9Xli9fcRxPAJ-3" edge="1">
          <mxGeometry relative="1" as="geometry">
            <Array as="points">
              <mxPoint x="400" y="597" />
              <mxPoint x="400" y="570" />
            </Array>
          </mxGeometry>
        </mxCell>
        <mxCell id="4OkYTni_PqpVls7OWQB5-1" style="edgeStyle=orthogonalEdgeStyle;rounded=0;orthogonalLoop=1;jettySize=auto;html=1;exitX=0;exitY=0.25;exitDx=0;exitDy=0;entryX=0;entryY=0;entryDx=45;entryDy=0;entryPerimeter=0;strokeWidth=4;strokeColor=#7EA6E0;endArrow=none;endFill=0;" edge="1" parent="1" source="OwuYxfIfj9mXfRf48xYH-7" target="pQ2Xcmpo9Xli9fcRxPAJ-9">
          <mxGeometry relative="1" as="geometry" />
        </mxCell>
        <mxCell id="OwuYxfIfj9mXfRf48xYH-7" value="" style="rounded=0;whiteSpace=wrap;html=1;fillColor=#7EA6E0;strokeColor=#7EA6E0;movable=1;resizable=1;rotatable=1;deletable=1;editable=1;locked=0;connectable=1;rotation=-60;" parent="1" vertex="1">
          <mxGeometry x="361" y="634" width="60" height="28.5" as="geometry" />
        </mxCell>
        <mxCell id="OwuYxfIfj9mXfRf48xYH-24" style="edgeStyle=none;shape=connector;rounded=0;orthogonalLoop=1;jettySize=auto;html=1;exitX=1;exitY=0.75;exitDx=0;exitDy=0;entryX=1;entryY=0.25;entryDx=0;entryDy=0;labelBackgroundColor=default;strokeColor=#7EA6E0;strokeWidth=3;fontFamily=Helvetica;fontSize=11;fontColor=default;endArrow=none;endFill=0;" parent="1" source="OwuYxfIfj9mXfRf48xYH-25" target="OwuYxfIfj9mXfRf48xYH-29" edge="1">
          <mxGeometry relative="1" as="geometry" />
        </mxCell>
        <mxCell id="OwuYxfIfj9mXfRf48xYH-25" value="" style="rounded=0;whiteSpace=wrap;html=1;fillColor=#7EA6E0;strokeColor=#7EA6E0;movable=1;resizable=1;rotatable=1;deletable=1;editable=1;locked=0;connectable=1;rotation=60;" parent="1" vertex="1">
          <mxGeometry x="681" y="726.5" width="60" height="28.5" as="geometry" />
        </mxCell>
        <mxCell id="OwuYxfIfj9mXfRf48xYH-26" style="edgeStyle=none;shape=connector;rounded=0;orthogonalLoop=1;jettySize=auto;html=1;exitX=1;exitY=0.25;exitDx=0;exitDy=0;entryX=0;entryY=0.25;entryDx=0;entryDy=0;labelBackgroundColor=default;strokeColor=#7EA6E0;strokeWidth=3;fontFamily=Helvetica;fontSize=11;fontColor=default;endArrow=none;endFill=0;" parent="1" target="OwuYxfIfj9mXfRf48xYH-33" edge="1">
          <mxGeometry relative="1" as="geometry">
            <mxPoint x="572.1704310019641" y="856.1682621135333" as="sourcePoint" />
          </mxGeometry>
        </mxCell>
        <mxCell id="OwuYxfIfj9mXfRf48xYH-28" style="edgeStyle=none;shape=connector;rounded=0;orthogonalLoop=1;jettySize=auto;html=1;exitX=0;exitY=0.25;exitDx=0;exitDy=0;entryX=1;entryY=0.25;entryDx=0;entryDy=0;labelBackgroundColor=default;strokeColor=#7EA6E0;strokeWidth=3;fontFamily=Helvetica;fontSize=11;fontColor=default;endArrow=none;endFill=0;" parent="1" source="OwuYxfIfj9mXfRf48xYH-29" target="OwuYxfIfj9mXfRf48xYH-33" edge="1">
          <mxGeometry relative="1" as="geometry" />
        </mxCell>
        <mxCell id="OwuYxfIfj9mXfRf48xYH-29" value="" style="rounded=0;whiteSpace=wrap;html=1;fillColor=#7EA6E0;strokeColor=#7EA6E0;movable=1;resizable=1;rotatable=1;deletable=1;editable=1;locked=0;connectable=1;rotation=-60;" parent="1" vertex="1">
          <mxGeometry x="681" y="819.5" width="60" height="28.5" as="geometry" />
        </mxCell>
        <mxCell id="OwuYxfIfj9mXfRf48xYH-30" style="rounded=0;orthogonalLoop=1;jettySize=auto;html=1;exitX=0;exitY=0.75;exitDx=0;exitDy=0;entryX=1;entryY=0.75;entryDx=0;entryDy=0;strokeColor=#7EA6E0;strokeWidth=3;endArrow=none;endFill=0;" parent="1" source="OwuYxfIfj9mXfRf48xYH-32" target="OwuYxfIfj9mXfRf48xYH-35" edge="1">
          <mxGeometry relative="1" as="geometry" />
        </mxCell>
        <mxCell id="OwuYxfIfj9mXfRf48xYH-31" style="edgeStyle=none;shape=connector;rounded=0;orthogonalLoop=1;jettySize=auto;html=1;exitX=1;exitY=0.75;exitDx=0;exitDy=0;entryX=0;entryY=0.75;entryDx=0;entryDy=0;labelBackgroundColor=default;strokeColor=#7EA6E0;strokeWidth=3;fontFamily=Helvetica;fontSize=11;fontColor=default;endArrow=none;endFill=0;" parent="1" source="OwuYxfIfj9mXfRf48xYH-32" target="OwuYxfIfj9mXfRf48xYH-25" edge="1">
          <mxGeometry relative="1" as="geometry" />
        </mxCell>
        <mxCell id="OwuYxfIfj9mXfRf48xYH-32" value="" style="rounded=0;whiteSpace=wrap;html=1;fillColor=#7EA6E0;strokeColor=#7EA6E0;movable=1;resizable=1;rotatable=1;deletable=1;editable=1;locked=0;connectable=1;rotation=0;" parent="1" vertex="1">
          <mxGeometry x="601" y="676.5" width="60" height="28.5" as="geometry" />
        </mxCell>
        <mxCell id="OwuYxfIfj9mXfRf48xYH-80" style="edgeStyle=none;shape=connector;rounded=0;orthogonalLoop=1;jettySize=auto;html=1;exitX=0;exitY=0.75;exitDx=0;exitDy=0;entryX=1;entryY=0.5;entryDx=0;entryDy=0;labelBackgroundColor=default;strokeColor=#7EA6E0;strokeWidth=3;fontFamily=Helvetica;fontSize=11;fontColor=default;endArrow=none;endFill=0;" parent="1" source="OwuYxfIfj9mXfRf48xYH-33" target="OwuYxfIfj9mXfRf48xYH-74" edge="1">
          <mxGeometry relative="1" as="geometry" />
        </mxCell>
        <mxCell id="OwuYxfIfj9mXfRf48xYH-33" value="" style="rounded=0;whiteSpace=wrap;html=1;fillColor=#7EA6E0;strokeColor=#7EA6E0;movable=1;resizable=1;rotatable=1;deletable=1;editable=1;locked=0;connectable=1;rotation=0;" parent="1" vertex="1">
          <mxGeometry x="601" y="869.5" width="60" height="28.5" as="geometry" />
        </mxCell>
        <mxCell id="OwuYxfIfj9mXfRf48xYH-35" value="" style="rounded=0;whiteSpace=wrap;html=1;fillColor=#7EA6E0;strokeColor=#7EA6E0;movable=1;resizable=1;rotatable=1;deletable=1;editable=1;locked=0;connectable=1;rotation=-60;" parent="1" vertex="1">
          <mxGeometry x="521" y="726.5" width="60" height="28.5" as="geometry" />
        </mxCell>
        <mxCell id="OwuYxfIfj9mXfRf48xYH-36" style="edgeStyle=none;shape=connector;rounded=0;orthogonalLoop=1;jettySize=auto;html=1;exitX=1;exitY=0.75;exitDx=0;exitDy=0;entryX=1;entryY=0.25;entryDx=0;entryDy=0;labelBackgroundColor=default;strokeColor=#7EA6E0;strokeWidth=3;fontFamily=Helvetica;fontSize=11;fontColor=default;endArrow=none;endFill=0;" parent="1" source="OwuYxfIfj9mXfRf48xYH-1" target="OwuYxfIfj9mXfRf48xYH-37" edge="1">
          <mxGeometry relative="1" as="geometry">
            <mxPoint x="400" y="778.5" as="sourcePoint" />
          </mxGeometry>
        </mxCell>
        <mxCell id="OwuYxfIfj9mXfRf48xYH-81" style="edgeStyle=orthogonalEdgeStyle;shape=connector;rounded=0;orthogonalLoop=1;jettySize=auto;html=1;exitX=0;exitY=0.75;exitDx=0;exitDy=0;entryX=0;entryY=0.5;entryDx=0;entryDy=0;labelBackgroundColor=default;strokeColor=#7EA6E0;strokeWidth=3;fontFamily=Helvetica;fontSize=11;fontColor=default;endArrow=none;endFill=0;" parent="1" source="OwuYxfIfj9mXfRf48xYH-37" target="OwuYxfIfj9mXfRf48xYH-74" edge="1">
          <mxGeometry relative="1" as="geometry">
            <Array as="points">
              <mxPoint x="382" y="892" />
            </Array>
          </mxGeometry>
        </mxCell>
        <mxCell id="OwuYxfIfj9mXfRf48xYH-37" value="" style="rounded=0;whiteSpace=wrap;html=1;fillColor=#7EA6E0;strokeColor=#7EA6E0;movable=1;resizable=1;rotatable=1;deletable=1;editable=1;locked=0;connectable=1;rotation=-60;" parent="1" vertex="1">
          <mxGeometry x="361" y="827.5" width="60" height="28.5" as="geometry" />
        </mxCell>
        <mxCell id="OwuYxfIfj9mXfRf48xYH-50" style="edgeStyle=none;shape=connector;rounded=0;orthogonalLoop=1;jettySize=auto;html=1;exitX=0;exitY=0.25;exitDx=0;exitDy=0;entryX=0;entryY=0.75;entryDx=0;entryDy=0;labelBackgroundColor=default;strokeColor=#7EA6E0;strokeWidth=3;fontFamily=Helvetica;fontSize=11;fontColor=default;endArrow=none;endFill=0;" parent="1" source="OwuYxfIfj9mXfRf48xYH-39" target="OwuYxfIfj9mXfRf48xYH-2" edge="1">
          <mxGeometry relative="1" as="geometry" />
        </mxCell>
        <mxCell id="OwuYxfIfj9mXfRf48xYH-39" value="" style="rounded=0;whiteSpace=wrap;html=1;fillColor=#7EA6E0;strokeColor=#7EA6E0;movable=1;resizable=1;rotatable=1;deletable=1;editable=1;locked=0;connectable=1;rotation=60;" parent="1" vertex="1">
          <mxGeometry x="521" y="827" width="60" height="28.5" as="geometry" />
        </mxCell>
        <mxCell id="OwuYxfIfj9mXfRf48xYH-44" style="rounded=0;orthogonalLoop=1;jettySize=auto;html=1;exitX=0;exitY=0.75;exitDx=0;exitDy=0;entryX=1;entryY=0.75;entryDx=0;entryDy=0;strokeColor=#7EA6E0;strokeWidth=3;endArrow=none;endFill=0;" parent="1" source="OwuYxfIfj9mXfRf48xYH-46" target="OwuYxfIfj9mXfRf48xYH-49" edge="1">
          <mxGeometry relative="1" as="geometry" />
        </mxCell>
        <mxCell id="OwuYxfIfj9mXfRf48xYH-45" style="edgeStyle=none;shape=connector;rounded=0;orthogonalLoop=1;jettySize=auto;html=1;exitX=1;exitY=0.75;exitDx=0;exitDy=0;entryX=0;entryY=0.75;entryDx=0;entryDy=0;labelBackgroundColor=default;strokeColor=#7EA6E0;strokeWidth=3;fontFamily=Helvetica;fontSize=11;fontColor=default;endArrow=none;endFill=0;" parent="1" source="OwuYxfIfj9mXfRf48xYH-46" target="OwuYxfIfj9mXfRf48xYH-39" edge="1">
          <mxGeometry relative="1" as="geometry" />
        </mxCell>
        <mxCell id="OwuYxfIfj9mXfRf48xYH-46" value="" style="rounded=0;whiteSpace=wrap;html=1;fillColor=#7EA6E0;strokeColor=#7EA6E0;movable=1;resizable=1;rotatable=1;deletable=1;editable=1;locked=0;connectable=1;rotation=0;" parent="1" vertex="1">
          <mxGeometry x="441" y="777" width="60" height="28.5" as="geometry" />
        </mxCell>
        <mxCell id="OwuYxfIfj9mXfRf48xYH-67" style="edgeStyle=orthogonalEdgeStyle;shape=connector;rounded=0;orthogonalLoop=1;jettySize=auto;html=1;exitX=0;exitY=0.25;exitDx=0;exitDy=0;entryX=0;entryY=0;entryDx=45;entryDy=0;entryPerimeter=0;labelBackgroundColor=default;strokeColor=#7EA6E0;strokeWidth=3;fontFamily=Helvetica;fontSize=11;fontColor=default;endArrow=none;endFill=0;" parent="1" source="OwuYxfIfj9mXfRf48xYH-49" target="pQ2Xcmpo9Xli9fcRxPAJ-21" edge="1">
          <mxGeometry relative="1" as="geometry">
            <Array as="points">
              <mxPoint x="369" y="870" />
            </Array>
          </mxGeometry>
        </mxCell>
        <mxCell id="OwuYxfIfj9mXfRf48xYH-49" value="" style="rounded=0;whiteSpace=wrap;html=1;fillColor=#7EA6E0;strokeColor=#7EA6E0;movable=1;resizable=1;rotatable=1;deletable=1;editable=1;locked=0;connectable=1;rotation=-60;" parent="1" vertex="1">
          <mxGeometry x="361" y="827" width="60" height="28.5" as="geometry" />
        </mxCell>
        <mxCell id="OwuYxfIfj9mXfRf48xYH-52" value="" style="rounded=0;whiteSpace=wrap;html=1;fillColor=#7EA6E0;strokeColor=#7EA6E0;movable=1;resizable=1;rotatable=1;deletable=1;editable=1;locked=0;connectable=1;rotation=-60;" parent="1" vertex="1">
          <mxGeometry x="521" y="534" width="60" height="28.5" as="geometry" />
        </mxCell>
        <mxCell id="OwuYxfIfj9mXfRf48xYH-53" style="edgeStyle=none;shape=connector;rounded=0;orthogonalLoop=1;jettySize=auto;html=1;exitX=1;exitY=0.75;exitDx=0;exitDy=0;entryX=1;entryY=0.25;entryDx=0;entryDy=0;labelBackgroundColor=default;strokeColor=#7EA6E0;strokeWidth=3;fontFamily=Helvetica;fontSize=11;fontColor=default;endArrow=none;endFill=0;" parent="1" source="OwuYxfIfj9mXfRf48xYH-54" target="OwuYxfIfj9mXfRf48xYH-58" edge="1">
          <mxGeometry relative="1" as="geometry" />
        </mxCell>
        <mxCell id="OwuYxfIfj9mXfRf48xYH-65" style="edgeStyle=orthogonalEdgeStyle;shape=connector;rounded=0;orthogonalLoop=1;jettySize=auto;html=1;exitX=1;exitY=0.25;exitDx=0;exitDy=0;entryX=0;entryY=0;entryDx=45;entryDy=0;entryPerimeter=0;labelBackgroundColor=default;strokeColor=#7EA6E0;strokeWidth=3;fontFamily=Helvetica;fontSize=11;fontColor=default;endArrow=none;endFill=0;" parent="1" source="OwuYxfIfj9mXfRf48xYH-54" target="pQ2Xcmpo9Xli9fcRxPAJ-45" edge="1">
          <mxGeometry relative="1" as="geometry">
            <Array as="points">
              <mxPoint x="731" y="570" />
            </Array>
          </mxGeometry>
        </mxCell>
        <mxCell id="OwuYxfIfj9mXfRf48xYH-54" value="" style="rounded=0;whiteSpace=wrap;html=1;fillColor=#7EA6E0;strokeColor=#7EA6E0;movable=1;resizable=1;rotatable=1;deletable=1;editable=1;locked=0;connectable=1;rotation=60;" parent="1" vertex="1">
          <mxGeometry x="681" y="533.5" width="60" height="28.5" as="geometry" />
        </mxCell>
        <mxCell id="OwuYxfIfj9mXfRf48xYH-55" style="edgeStyle=none;shape=connector;rounded=0;orthogonalLoop=1;jettySize=auto;html=1;exitX=1;exitY=0.25;exitDx=0;exitDy=0;entryX=0;entryY=0.25;entryDx=0;entryDy=0;labelBackgroundColor=default;strokeColor=#7EA6E0;strokeWidth=3;fontFamily=Helvetica;fontSize=11;fontColor=default;endArrow=none;endFill=0;" parent="1" target="OwuYxfIfj9mXfRf48xYH-62" edge="1">
          <mxGeometry relative="1" as="geometry">
            <mxPoint x="572.1704310019641" y="663.1682621135332" as="sourcePoint" />
          </mxGeometry>
        </mxCell>
        <mxCell id="OwuYxfIfj9mXfRf48xYH-57" style="edgeStyle=none;shape=connector;rounded=0;orthogonalLoop=1;jettySize=auto;html=1;exitX=0;exitY=0.25;exitDx=0;exitDy=0;entryX=1;entryY=0.25;entryDx=0;entryDy=0;labelBackgroundColor=default;strokeColor=#7EA6E0;strokeWidth=3;fontFamily=Helvetica;fontSize=11;fontColor=default;endArrow=none;endFill=0;" parent="1" source="OwuYxfIfj9mXfRf48xYH-58" target="OwuYxfIfj9mXfRf48xYH-62" edge="1">
          <mxGeometry relative="1" as="geometry" />
        </mxCell>
        <mxCell id="OwuYxfIfj9mXfRf48xYH-90" style="edgeStyle=none;shape=connector;rounded=0;orthogonalLoop=1;jettySize=auto;html=1;exitX=0;exitY=0.75;exitDx=0;exitDy=0;entryX=0;entryY=0.25;entryDx=0;entryDy=0;labelBackgroundColor=default;strokeColor=#7EA6E0;strokeWidth=3;fontFamily=Helvetica;fontSize=11;fontColor=default;endArrow=none;endFill=0;" parent="1" source="OwuYxfIfj9mXfRf48xYH-58" target="OwuYxfIfj9mXfRf48xYH-25" edge="1">
          <mxGeometry relative="1" as="geometry" />
        </mxCell>
        <mxCell id="OwuYxfIfj9mXfRf48xYH-91" style="edgeStyle=orthogonalEdgeStyle;shape=connector;rounded=0;orthogonalLoop=1;jettySize=auto;html=1;exitX=1;exitY=0.75;exitDx=0;exitDy=0;entryX=0;entryY=0;entryDx=45;entryDy=0;entryPerimeter=0;labelBackgroundColor=default;strokeColor=#7EA6E0;strokeWidth=3;fontFamily=Helvetica;fontSize=11;fontColor=default;endArrow=none;endFill=0;" parent="1" source="OwuYxfIfj9mXfRf48xYH-58" target="pQ2Xcmpo9Xli9fcRxPAJ-39" edge="1">
          <mxGeometry relative="1" as="geometry" />
        </mxCell>
        <mxCell id="OwuYxfIfj9mXfRf48xYH-58" value="" style="rounded=0;whiteSpace=wrap;html=1;fillColor=#7EA6E0;strokeColor=#7EA6E0;movable=1;resizable=1;rotatable=1;deletable=1;editable=1;locked=0;connectable=1;rotation=-60;" parent="1" vertex="1">
          <mxGeometry x="681" y="626.5" width="60" height="28.5" as="geometry" />
        </mxCell>
        <mxCell id="OwuYxfIfj9mXfRf48xYH-59" style="rounded=0;orthogonalLoop=1;jettySize=auto;html=1;exitX=0;exitY=0.75;exitDx=0;exitDy=0;entryX=1;entryY=0.75;entryDx=0;entryDy=0;strokeColor=#7EA6E0;strokeWidth=3;endArrow=none;endFill=0;" parent="1" source="OwuYxfIfj9mXfRf48xYH-61" target="OwuYxfIfj9mXfRf48xYH-64" edge="1">
          <mxGeometry relative="1" as="geometry" />
        </mxCell>
        <mxCell id="OwuYxfIfj9mXfRf48xYH-60" style="edgeStyle=none;shape=connector;rounded=0;orthogonalLoop=1;jettySize=auto;html=1;exitX=1;exitY=0.75;exitDx=0;exitDy=0;entryX=0;entryY=0.75;entryDx=0;entryDy=0;labelBackgroundColor=default;strokeColor=#7EA6E0;strokeWidth=3;fontFamily=Helvetica;fontSize=11;fontColor=default;endArrow=none;endFill=0;" parent="1" source="OwuYxfIfj9mXfRf48xYH-61" target="OwuYxfIfj9mXfRf48xYH-54" edge="1">
          <mxGeometry relative="1" as="geometry" />
        </mxCell>
        <mxCell id="OwuYxfIfj9mXfRf48xYH-92" style="edgeStyle=none;shape=connector;rounded=0;orthogonalLoop=1;jettySize=auto;html=1;exitX=0;exitY=0.25;exitDx=0;exitDy=0;entryX=1;entryY=0.5;entryDx=0;entryDy=0;labelBackgroundColor=default;strokeColor=#7EA6E0;strokeWidth=3;fontFamily=Helvetica;fontSize=11;fontColor=default;endArrow=none;endFill=0;" parent="1" source="OwuYxfIfj9mXfRf48xYH-61" target="OwuYxfIfj9mXfRf48xYH-83" edge="1">
          <mxGeometry relative="1" as="geometry" />
        </mxCell>
        <mxCell id="OwuYxfIfj9mXfRf48xYH-61" value="" style="rounded=0;whiteSpace=wrap;html=1;fillColor=#7EA6E0;strokeColor=#7EA6E0;movable=1;resizable=1;rotatable=1;deletable=1;editable=1;locked=0;connectable=1;rotation=0;" parent="1" vertex="1">
          <mxGeometry x="601" y="483.5" width="60" height="28.5" as="geometry" />
        </mxCell>
        <mxCell id="OwuYxfIfj9mXfRf48xYH-62" value="" style="rounded=0;whiteSpace=wrap;html=1;fillColor=#7EA6E0;strokeColor=#7EA6E0;movable=1;resizable=1;rotatable=1;deletable=1;editable=1;locked=0;connectable=1;rotation=0;" parent="1" vertex="1">
          <mxGeometry x="601" y="676.5" width="60" height="28.5" as="geometry" />
        </mxCell>
        <mxCell id="OwuYxfIfj9mXfRf48xYH-63" style="edgeStyle=none;shape=connector;rounded=0;orthogonalLoop=1;jettySize=auto;html=1;exitX=0;exitY=0.75;exitDx=0;exitDy=0;entryX=0;entryY=0.25;entryDx=0;entryDy=0;labelBackgroundColor=default;strokeColor=#7EA6E0;strokeWidth=3;fontFamily=Helvetica;fontSize=11;fontColor=default;endArrow=none;endFill=0;" parent="1" source="OwuYxfIfj9mXfRf48xYH-64" target="pQ2Xcmpo9Xli9fcRxPAJ-62" edge="1">
          <mxGeometry relative="1" as="geometry">
            <mxPoint x="542.1704310019642" y="611.2067378864668" as="targetPoint" />
          </mxGeometry>
        </mxCell>
        <mxCell id="OwuYxfIfj9mXfRf48xYH-64" value="" style="rounded=0;whiteSpace=wrap;html=1;fillColor=#7EA6E0;strokeColor=#7EA6E0;movable=1;resizable=1;rotatable=1;deletable=1;editable=1;locked=0;connectable=1;rotation=-60;" parent="1" vertex="1">
          <mxGeometry x="521" y="533.5" width="60" height="28.5" as="geometry" />
        </mxCell>
        <mxCell id="OwuYxfIfj9mXfRf48xYH-71" style="edgeStyle=orthogonalEdgeStyle;shape=connector;rounded=0;orthogonalLoop=1;jettySize=auto;html=1;exitX=0;exitY=0;exitDx=45;exitDy=0;exitPerimeter=0;entryX=1;entryY=0.25;entryDx=0;entryDy=0;labelBackgroundColor=default;strokeColor=#7EA6E0;strokeWidth=3;fontFamily=Helvetica;fontSize=11;fontColor=default;endArrow=none;endFill=0;" parent="1" source="pQ2Xcmpo9Xli9fcRxPAJ-57" target="OwuYxfIfj9mXfRf48xYH-25" edge="1">
          <mxGeometry relative="1" as="geometry">
            <Array as="points">
              <mxPoint x="730" y="770" />
            </Array>
          </mxGeometry>
        </mxCell>
        <mxCell id="OwuYxfIfj9mXfRf48xYH-72" style="edgeStyle=orthogonalEdgeStyle;shape=connector;rounded=0;orthogonalLoop=1;jettySize=auto;html=1;exitX=0;exitY=0;exitDx=45;exitDy=0;exitPerimeter=0;entryX=1;entryY=0.75;entryDx=0;entryDy=0;labelBackgroundColor=default;strokeColor=#7EA6E0;strokeWidth=3;fontFamily=Helvetica;fontSize=11;fontColor=default;endArrow=none;endFill=0;" parent="1" source="pQ2Xcmpo9Xli9fcRxPAJ-51" target="OwuYxfIfj9mXfRf48xYH-29" edge="1">
          <mxGeometry relative="1" as="geometry" />
        </mxCell>
        <mxCell id="OwuYxfIfj9mXfRf48xYH-73" value="" style="group;fillColor=#f8cecc;strokeColor=#b85450;rotation=0;" parent="1" vertex="1" connectable="0">
          <mxGeometry x="421" y="874" width="110" height="35" as="geometry" />
        </mxCell>
        <mxCell id="OwuYxfIfj9mXfRf48xYH-74" value="" style="rounded=0;whiteSpace=wrap;html=1;fillColor=#e1d5e7;strokeColor=#9673a6;rotation=0;" parent="OwuYxfIfj9mXfRf48xYH-73" vertex="1">
          <mxGeometry width="110" height="35" as="geometry" />
        </mxCell>
        <mxCell id="OwuYxfIfj9mXfRf48xYH-75" value="" style="endArrow=none;html=1;rounded=0;labelBackgroundColor=default;strokeColor=#B5739D;strokeWidth=3;fontFamily=Helvetica;fontSize=11;fontColor=default;shape=connector;exitX=0;exitY=0.5;exitDx=0;exitDy=0;entryX=1;entryY=0.5;entryDx=0;entryDy=0;" parent="OwuYxfIfj9mXfRf48xYH-73" source="OwuYxfIfj9mXfRf48xYH-74" target="OwuYxfIfj9mXfRf48xYH-74" edge="1">
          <mxGeometry width="50" height="50" relative="1" as="geometry">
            <mxPoint x="22" y="10" as="sourcePoint" />
            <mxPoint x="46" y="-40" as="targetPoint" />
          </mxGeometry>
        </mxCell>
        <mxCell id="OwuYxfIfj9mXfRf48xYH-76" value="" style="rounded=0;whiteSpace=wrap;html=1;fontFamily=Helvetica;fontSize=11;fillColor=#ffe6cc;strokeColor=#d79b00;rotation=0;" parent="OwuYxfIfj9mXfRf48xYH-73" vertex="1">
          <mxGeometry x="5" y="22" width="100.83333333333333" height="7.5" as="geometry" />
        </mxCell>
        <mxCell id="OwuYxfIfj9mXfRf48xYH-77" value="" style="rounded=0;whiteSpace=wrap;html=1;fontFamily=Helvetica;fontSize=11;fillColor=#ffe6cc;strokeColor=#d79b00;rotation=0;" parent="OwuYxfIfj9mXfRf48xYH-73" vertex="1">
          <mxGeometry x="5" y="5" width="100.83333333333333" height="7.5" as="geometry" />
        </mxCell>
        <mxCell id="OwuYxfIfj9mXfRf48xYH-82" value="" style="group;fillColor=#f8cecc;strokeColor=#b85450;rotation=0;" parent="1" vertex="1" connectable="0">
          <mxGeometry x="414" y="473" width="110" height="35" as="geometry" />
        </mxCell>
        <mxCell id="OwuYxfIfj9mXfRf48xYH-83" value="" style="rounded=0;whiteSpace=wrap;html=1;fillColor=#e1d5e7;strokeColor=#9673a6;rotation=0;" parent="OwuYxfIfj9mXfRf48xYH-82" vertex="1">
          <mxGeometry width="110" height="35" as="geometry" />
        </mxCell>
        <mxCell id="OwuYxfIfj9mXfRf48xYH-84" value="" style="endArrow=none;html=1;rounded=0;labelBackgroundColor=default;strokeColor=#B5739D;strokeWidth=3;fontFamily=Helvetica;fontSize=11;fontColor=default;shape=connector;exitX=0;exitY=0.5;exitDx=0;exitDy=0;entryX=1;entryY=0.5;entryDx=0;entryDy=0;" parent="OwuYxfIfj9mXfRf48xYH-82" source="OwuYxfIfj9mXfRf48xYH-83" target="OwuYxfIfj9mXfRf48xYH-83" edge="1">
          <mxGeometry width="50" height="50" relative="1" as="geometry">
            <mxPoint x="22" y="10" as="sourcePoint" />
            <mxPoint x="46" y="-40" as="targetPoint" />
          </mxGeometry>
        </mxCell>
        <mxCell id="OwuYxfIfj9mXfRf48xYH-85" value="" style="rounded=0;whiteSpace=wrap;html=1;fontFamily=Helvetica;fontSize=11;fillColor=#ffe6cc;strokeColor=#d79b00;rotation=0;" parent="OwuYxfIfj9mXfRf48xYH-82" vertex="1">
          <mxGeometry x="5" y="22" width="100.83333333333333" height="7.5" as="geometry" />
        </mxCell>
        <mxCell id="OwuYxfIfj9mXfRf48xYH-86" value="" style="rounded=0;whiteSpace=wrap;html=1;fontFamily=Helvetica;fontSize=11;fillColor=#ffe6cc;strokeColor=#d79b00;rotation=0;" parent="OwuYxfIfj9mXfRf48xYH-82" vertex="1">
          <mxGeometry x="5" y="5" width="100.83333333333333" height="7.5" as="geometry" />
        </mxCell>
        <mxCell id="OwuYxfIfj9mXfRf48xYH-89" style="edgeStyle=orthogonalEdgeStyle;shape=connector;rounded=0;orthogonalLoop=1;jettySize=auto;html=1;exitX=0;exitY=0.5;exitDx=0;exitDy=0;entryX=0;entryY=0.25;entryDx=0;entryDy=0;labelBackgroundColor=default;strokeColor=#7EA6E0;strokeWidth=3;fontFamily=Helvetica;fontSize=11;fontColor=default;endArrow=none;endFill=0;" parent="1" source="OwuYxfIfj9mXfRf48xYH-83" target="OwuYxfIfj9mXfRf48xYH-3" edge="1">
          <mxGeometry relative="1" as="geometry">
            <Array as="points">
              <mxPoint x="410" y="491" />
              <mxPoint x="410" y="591" />
            </Array>
          </mxGeometry>
        </mxCell>
      </root>
    </mxGraphModel>
  </diagram>
</mxfile>
